<svg data-name="Layer 1" xmlns="http://www.w3.org/2000/svg" width="658.717" height="482.741"><path d="M285.092 196.861a30.28 30.28 0 00-24.18 12.024 19.938 19.938 0 00-27.819 18.309h82.332a30.332 30.332 0 00-30.333-30.333z" fill="#e6e6e6"/><path d="M398.825 175.87H38.492a18.203 18.203 0 00-18.177 18.178v270.516a18.203 18.203 0 0018.177 18.177h360.333a18.203 18.203 0 0018.177-18.177V194.048a18.203 18.203 0 00-18.177-18.177zm16.038 288.694a16.058 16.058 0 01-16.038 16.039H38.492a16.058 16.058 0 01-16.038-16.039V194.048a16.058 16.058 0 0116.038-16.039h360.333a16.058 16.058 0 0116.038 16.039z" fill="#BDBDBD"/><circle cx="80.727" cy="289.744" r="80.727" fill="#6c63ff"/><path d="M417.002 404.762v22.379H20.315v-22.486l2.139-3.08L148.218 220.48a6.196 6.196 0 0110.179 0l84.34 121.433 60.038-85.688a6.197 6.197 0 0110.158 0l101.93 145.48z" fill="#3f3d56"/><path d="M107.458 452.803H44.373a1.07 1.07 0 010-2.139h63.085a1.07 1.07 0 110 2.139zm95.162 0h-63.085a1.07 1.07 0 110-2.139h63.085a1.07 1.07 0 010 2.139zm95.162 0h-63.085a1.07 1.07 0 010-2.139h63.085a1.07 1.07 0 110 2.139zm95.162 0H329.86a1.07 1.07 0 010-2.139h63.085a1.07 1.07 0 010 2.139z" fill="#BDBDBD"/><ellipse cx="771.113" cy="360.024" rx="186.047" ry="115.477" transform="rotate(-42.146 365.073 606.897)" fill="#3f3d56"/><path d="M356.301 425.76c-10.274-21.223-13.912-45.136-12.123-68.549a164.735 164.735 0 0120.135-66.263c10.821-19.785 25.123-37.495 41.38-53.068 17.254-16.528 36.71-30.559 57.181-42.822 21.617-12.95 44.33-23.954 67.309-34.25q4.295-1.925 8.604-3.82c1.885-.83.254-3.594-1.62-2.77-23.427 10.316-46.657 21.187-68.872 33.942-21.222 12.186-41.526 26.126-59.666 42.599-16.922 15.367-32.003 32.946-43.696 52.628a172.042 172.042 0 00-23.165 65.995c-2.996 23.518-.68 47.974 8.236 70.04q1.631 4.037 3.527 7.957c.9 1.858 3.666.233 2.77-1.619z" fill="#ccc"/><path d="M444.782 203.238a193.82 193.82 0 013.913-52.178 197.014 197.014 0 0117.594-49.308 193.756 193.756 0 0115.5-25.093c1.217-1.67-1.565-3.273-2.77-1.619a196.924 196.924 0 00-25.062 46.635 200.262 200.262 0 00-11.89 51.62 193.678 193.678 0 00-.493 29.943c.125 2.05 3.334 2.065 3.208 0zM220.263 247.51a37.36 37.36 0 00-29.833 14.834 24.598 24.598 0 00-34.322 22.589h101.578a37.423 37.423 0 00-37.423-37.424z" fill="#ccc"/></svg>